<svg xmlns="http://www.w3.org/2000/svg" xmlns:xlink="http://www.w3.org/1999/xlink" width="100" zoomAndPan="magnify" viewBox="0 0 75 30.000001" height="40" preserveAspectRatio="xMidYMid meet" version="1.0"><defs><g/><clipPath id="2f1c8ab102"><path d="M 1.210938 2.484375 L 73.789062 2.484375 L 73.789062 3.210938 L 1.210938 3.210938 Z M 1.210938 2.484375 " clip-rule="nonzero"/></clipPath><clipPath id="8b9422ef38"><path d="M 1.210938 17.546875 L 73.789062 17.546875 L 73.789062 18.273438 L 1.210938 18.273438 Z M 1.210938 17.546875 " clip-rule="nonzero"/></clipPath></defs><g fill="#ffffff" fill-opacity="1"><g transform="translate(16.732098, 12.701611)"><g><path d="M 4.359375 -3.203125 L 5.671875 -3.203125 L 5.671875 -3.109375 L 5.625 -3.109375 C 5.582031 -3.109375 5.539062 -3.085938 5.5 -3.046875 C 5.46875 -3.015625 5.4375 -2.972656 5.40625 -2.921875 C 5.382812 -2.878906 5.363281 -2.828125 5.34375 -2.765625 C 5.332031 -2.710938 5.328125 -2.664062 5.328125 -2.625 L 5.328125 -0.171875 C 5.210938 -0.117188 5.082031 -0.078125 4.9375 -0.046875 C 4.800781 -0.0234375 4.65625 -0.00390625 4.5 0.015625 C 4.351562 0.046875 4.195312 0.0664062 4.03125 0.078125 C 3.875 0.0859375 3.726562 0.09375 3.59375 0.09375 C 3.050781 0.09375 2.570312 0.00390625 2.15625 -0.171875 C 1.75 -0.359375 1.410156 -0.597656 1.140625 -0.890625 C 0.867188 -1.191406 0.664062 -1.53125 0.53125 -1.90625 C 0.40625 -2.28125 0.34375 -2.660156 0.34375 -3.046875 C 0.34375 -3.421875 0.40625 -3.796875 0.53125 -4.171875 C 0.664062 -4.546875 0.867188 -4.878906 1.140625 -5.171875 C 1.410156 -5.460938 1.753906 -5.695312 2.171875 -5.875 C 2.585938 -6.0625 3.078125 -6.15625 3.640625 -6.15625 C 3.859375 -6.15625 4.054688 -6.132812 4.234375 -6.09375 C 4.421875 -6.0625 4.585938 -6.03125 4.734375 -6 C 4.804688 -5.976562 4.875 -5.957031 4.9375 -5.9375 C 5 -5.925781 5.050781 -5.921875 5.09375 -5.921875 L 5.171875 -5.921875 L 5.171875 -4.953125 L 5.078125 -4.953125 C 5.046875 -5.140625 4.972656 -5.289062 4.859375 -5.40625 C 4.753906 -5.53125 4.628906 -5.617188 4.484375 -5.671875 C 4.347656 -5.734375 4.203125 -5.773438 4.046875 -5.796875 C 3.890625 -5.816406 3.742188 -5.828125 3.609375 -5.828125 C 3.148438 -5.828125 2.75 -5.742188 2.40625 -5.578125 C 2.070312 -5.421875 1.796875 -5.210938 1.578125 -4.953125 C 1.367188 -4.703125 1.210938 -4.414062 1.109375 -4.09375 C 1.003906 -3.769531 0.953125 -3.453125 0.953125 -3.140625 C 0.953125 -2.773438 1.019531 -2.421875 1.15625 -2.078125 C 1.289062 -1.734375 1.476562 -1.425781 1.71875 -1.15625 C 1.96875 -0.882812 2.265625 -0.660156 2.609375 -0.484375 C 2.960938 -0.316406 3.347656 -0.234375 3.765625 -0.234375 C 3.878906 -0.234375 4.019531 -0.25 4.1875 -0.28125 C 4.363281 -0.3125 4.539062 -0.375 4.71875 -0.46875 L 4.71875 -2.625 C 4.71875 -2.664062 4.707031 -2.710938 4.6875 -2.765625 C 4.675781 -2.828125 4.65625 -2.878906 4.625 -2.921875 C 4.601562 -2.972656 4.570312 -3.015625 4.53125 -3.046875 C 4.5 -3.085938 4.457031 -3.109375 4.40625 -3.109375 L 4.359375 -3.109375 Z M 4.359375 -3.203125 "/></g></g></g><g fill="#ffffff" fill-opacity="1"><g transform="translate(23.580058, 12.701611)"><g><path d="M 1.65625 -0.09375 L 1.703125 -0.09375 L 1.703125 0 L 0.40625 0 L 0.40625 -0.09375 L 0.453125 -0.09375 C 0.503906 -0.09375 0.546875 -0.109375 0.578125 -0.140625 C 0.617188 -0.179688 0.648438 -0.222656 0.671875 -0.265625 C 0.703125 -0.316406 0.722656 -0.375 0.734375 -0.4375 C 0.742188 -0.5 0.75 -0.550781 0.75 -0.59375 L 0.75 -5.5 C 0.75 -5.539062 0.742188 -5.585938 0.734375 -5.640625 C 0.722656 -5.691406 0.703125 -5.742188 0.671875 -5.796875 C 0.648438 -5.847656 0.617188 -5.890625 0.578125 -5.921875 C 0.546875 -5.953125 0.503906 -5.96875 0.453125 -5.96875 L 0.40625 -5.96875 L 0.40625 -6.0625 L 2.015625 -6.0625 C 2.628906 -6.0625 3.101562 -5.941406 3.4375 -5.703125 C 3.769531 -5.460938 3.9375 -5.113281 3.9375 -4.65625 C 3.9375 -4.414062 3.894531 -4.207031 3.8125 -4.03125 C 3.738281 -3.863281 3.632812 -3.71875 3.5 -3.59375 C 3.375 -3.46875 3.222656 -3.363281 3.046875 -3.28125 C 2.878906 -3.207031 2.695312 -3.148438 2.5 -3.109375 L 3.15625 -2.109375 C 3.320312 -1.859375 3.484375 -1.613281 3.640625 -1.375 C 3.804688 -1.144531 3.972656 -0.90625 4.140625 -0.65625 C 4.179688 -0.59375 4.226562 -0.523438 4.28125 -0.453125 C 4.332031 -0.390625 4.382812 -0.328125 4.4375 -0.265625 C 4.5 -0.210938 4.5625 -0.171875 4.625 -0.140625 C 4.6875 -0.109375 4.753906 -0.09375 4.828125 -0.09375 L 4.828125 0 L 4.421875 0 C 4.179688 0 3.984375 -0.0546875 3.828125 -0.171875 C 3.671875 -0.296875 3.539062 -0.4375 3.4375 -0.59375 C 3.15625 -1 2.878906 -1.410156 2.609375 -1.828125 C 2.335938 -2.242188 2.066406 -2.65625 1.796875 -3.0625 C 1.734375 -3.0625 1.660156 -3.066406 1.578125 -3.078125 C 1.503906 -3.085938 1.4375 -3.097656 1.375 -3.109375 L 1.375 -0.59375 C 1.375 -0.550781 1.378906 -0.5 1.390625 -0.4375 C 1.398438 -0.375 1.414062 -0.316406 1.4375 -0.265625 C 1.46875 -0.222656 1.5 -0.179688 1.53125 -0.140625 C 1.570312 -0.109375 1.613281 -0.09375 1.65625 -0.09375 Z M 1.375 -5.75 L 1.375 -3.421875 L 1.421875 -3.421875 C 1.460938 -3.410156 1.535156 -3.40625 1.640625 -3.40625 C 1.753906 -3.40625 1.890625 -3.40625 2.046875 -3.40625 C 2.171875 -3.40625 2.304688 -3.421875 2.453125 -3.453125 C 2.597656 -3.492188 2.734375 -3.5625 2.859375 -3.65625 C 2.984375 -3.75 3.085938 -3.875 3.171875 -4.03125 C 3.253906 -4.1875 3.296875 -4.378906 3.296875 -4.609375 C 3.296875 -4.847656 3.25 -5.039062 3.15625 -5.1875 C 3.070312 -5.332031 2.953125 -5.445312 2.796875 -5.53125 C 2.640625 -5.613281 2.453125 -5.671875 2.234375 -5.703125 C 2.015625 -5.734375 1.769531 -5.75 1.5 -5.75 Z M 1.375 -5.75 "/></g></g></g><g fill="#ffffff" fill-opacity="1"><g transform="translate(29.352594, 12.701611)"><g><path d="M 0.453125 -6.0625 L 1.765625 -6.0625 L 1.765625 -5.96875 L 1.71875 -5.96875 C 1.675781 -5.96875 1.632812 -5.953125 1.59375 -5.921875 C 1.5625 -5.890625 1.53125 -5.847656 1.5 -5.796875 C 1.476562 -5.753906 1.457031 -5.703125 1.4375 -5.640625 C 1.425781 -5.585938 1.421875 -5.539062 1.421875 -5.5 L 1.421875 -0.59375 C 1.421875 -0.550781 1.425781 -0.5 1.4375 -0.4375 C 1.445312 -0.375 1.46875 -0.316406 1.5 -0.265625 C 1.53125 -0.222656 1.5625 -0.179688 1.59375 -0.140625 C 1.625 -0.109375 1.664062 -0.09375 1.71875 -0.09375 L 1.765625 -0.09375 L 1.765625 0 L 0.453125 0 L 0.453125 -0.09375 L 0.5 -0.09375 C 0.539062 -0.09375 0.582031 -0.109375 0.625 -0.140625 C 0.664062 -0.171875 0.695312 -0.210938 0.71875 -0.265625 C 0.75 -0.316406 0.769531 -0.375 0.78125 -0.4375 C 0.789062 -0.5 0.796875 -0.550781 0.796875 -0.59375 L 0.796875 -5.5 C 0.796875 -5.539062 0.789062 -5.585938 0.78125 -5.640625 C 0.769531 -5.691406 0.75 -5.742188 0.71875 -5.796875 C 0.695312 -5.847656 0.664062 -5.890625 0.625 -5.921875 C 0.582031 -5.953125 0.539062 -5.96875 0.5 -5.96875 L 0.453125 -5.96875 Z M 0.453125 -6.0625 "/></g></g></g><g fill="#ffffff" fill-opacity="1"><g transform="translate(32.395201, 12.701611)"><g><path d="M 0.40625 -0.09375 L 0.453125 -0.09375 C 0.503906 -0.09375 0.546875 -0.109375 0.578125 -0.140625 C 0.617188 -0.171875 0.648438 -0.210938 0.671875 -0.265625 C 0.703125 -0.316406 0.722656 -0.367188 0.734375 -0.421875 C 0.753906 -0.472656 0.765625 -0.523438 0.765625 -0.578125 L 0.765625 -5.5 C 0.765625 -5.539062 0.753906 -5.585938 0.734375 -5.640625 C 0.722656 -5.691406 0.703125 -5.742188 0.671875 -5.796875 C 0.648438 -5.847656 0.617188 -5.890625 0.578125 -5.921875 C 0.546875 -5.953125 0.503906 -5.96875 0.453125 -5.96875 L 0.40625 -5.96875 L 0.40625 -6.0625 L 3.953125 -6.0625 L 3.953125 -5.203125 L 3.859375 -5.203125 C 3.847656 -5.347656 3.789062 -5.472656 3.6875 -5.578125 C 3.59375 -5.679688 3.441406 -5.734375 3.234375 -5.734375 L 1.390625 -5.734375 L 1.390625 -3.421875 L 2.90625 -3.421875 C 3.050781 -3.421875 3.171875 -3.460938 3.265625 -3.546875 C 3.359375 -3.628906 3.40625 -3.726562 3.40625 -3.84375 L 3.5 -3.84375 L 3.5 -2.703125 L 3.40625 -2.703125 C 3.40625 -2.804688 3.359375 -2.898438 3.265625 -2.984375 C 3.179688 -3.066406 3.0625 -3.109375 2.90625 -3.109375 L 1.390625 -3.109375 L 1.390625 -0.328125 L 3.40625 -0.328125 C 3.519531 -0.328125 3.617188 -0.351562 3.703125 -0.40625 C 3.785156 -0.457031 3.851562 -0.519531 3.90625 -0.59375 C 3.96875 -0.675781 4.015625 -0.757812 4.046875 -0.84375 C 4.078125 -0.9375 4.09375 -1.015625 4.09375 -1.078125 L 4.1875 -1.078125 L 4.1875 0 L 0.40625 0 Z M 0.40625 -0.09375 "/></g></g></g><g fill="#ffffff" fill-opacity="1"><g transform="translate(37.662193, 12.701611)"><g><path d="M 0.40625 -0.09375 L 0.453125 -0.09375 C 0.503906 -0.09375 0.546875 -0.109375 0.578125 -0.140625 C 0.617188 -0.179688 0.648438 -0.222656 0.671875 -0.265625 C 0.703125 -0.316406 0.722656 -0.375 0.734375 -0.4375 C 0.742188 -0.5 0.75 -0.550781 0.75 -0.59375 L 0.75 -5.484375 C 0.75 -5.523438 0.742188 -5.570312 0.734375 -5.625 C 0.722656 -5.6875 0.703125 -5.742188 0.671875 -5.796875 C 0.648438 -5.847656 0.617188 -5.890625 0.578125 -5.921875 C 0.535156 -5.953125 0.488281 -5.96875 0.4375 -5.96875 L 0.390625 -5.96875 L 0.390625 -6.0625 L 1.90625 -6.0625 C 2.46875 -6.0625 2.910156 -5.9375 3.234375 -5.6875 C 3.554688 -5.4375 3.71875 -5.101562 3.71875 -4.6875 C 3.71875 -4.507812 3.6875 -4.347656 3.625 -4.203125 C 3.5625 -4.066406 3.484375 -3.941406 3.390625 -3.828125 C 3.296875 -3.722656 3.191406 -3.628906 3.078125 -3.546875 C 2.972656 -3.472656 2.875 -3.410156 2.78125 -3.359375 C 3.03125 -3.316406 3.238281 -3.234375 3.40625 -3.109375 C 3.582031 -2.992188 3.722656 -2.859375 3.828125 -2.703125 C 3.941406 -2.554688 4.019531 -2.394531 4.0625 -2.21875 C 4.101562 -2.050781 4.125 -1.890625 4.125 -1.734375 C 4.125 -1.410156 4.066406 -1.140625 3.953125 -0.921875 C 3.835938 -0.703125 3.679688 -0.523438 3.484375 -0.390625 C 3.296875 -0.253906 3.078125 -0.15625 2.828125 -0.09375 C 2.578125 -0.03125 2.320312 0 2.0625 0 L 0.40625 0 Z M 3.5 -1.671875 C 3.445312 -2.140625 3.285156 -2.503906 3.015625 -2.765625 C 2.753906 -3.023438 2.378906 -3.15625 1.890625 -3.15625 L 1.375 -3.15625 L 1.375 -0.296875 L 1.90625 -0.296875 C 2.394531 -0.296875 2.78125 -0.40625 3.0625 -0.625 C 3.351562 -0.851562 3.5 -1.171875 3.5 -1.578125 Z M 3.125 -4.609375 C 3.101562 -4.960938 2.976562 -5.242188 2.75 -5.453125 C 2.519531 -5.660156 2.210938 -5.765625 1.828125 -5.765625 L 1.375 -5.765625 L 1.375 -3.4375 L 1.84375 -3.4375 C 2.101562 -3.4375 2.3125 -3.46875 2.46875 -3.53125 C 2.632812 -3.601562 2.765625 -3.691406 2.859375 -3.796875 C 2.960938 -3.910156 3.03125 -4.03125 3.0625 -4.15625 C 3.101562 -4.289062 3.125 -4.414062 3.125 -4.53125 Z M 3.125 -4.609375 "/></g></g></g><g fill="#ffffff" fill-opacity="1"><g transform="translate(42.965951, 12.701611)"><g><path d="M 0.40625 -0.09375 L 0.453125 -0.09375 C 0.503906 -0.09375 0.546875 -0.109375 0.578125 -0.140625 C 0.617188 -0.171875 0.648438 -0.210938 0.671875 -0.265625 C 0.703125 -0.316406 0.722656 -0.367188 0.734375 -0.421875 C 0.753906 -0.472656 0.765625 -0.523438 0.765625 -0.578125 L 0.765625 -5.5 C 0.765625 -5.539062 0.753906 -5.585938 0.734375 -5.640625 C 0.722656 -5.691406 0.703125 -5.742188 0.671875 -5.796875 C 0.648438 -5.847656 0.617188 -5.890625 0.578125 -5.921875 C 0.546875 -5.953125 0.503906 -5.96875 0.453125 -5.96875 L 0.40625 -5.96875 L 0.40625 -6.0625 L 1.734375 -6.0625 L 1.734375 -5.96875 L 1.6875 -5.96875 C 1.632812 -5.96875 1.585938 -5.953125 1.546875 -5.921875 C 1.515625 -5.890625 1.488281 -5.847656 1.46875 -5.796875 C 1.445312 -5.742188 1.425781 -5.691406 1.40625 -5.640625 C 1.394531 -5.585938 1.390625 -5.539062 1.390625 -5.5 L 1.390625 -0.34375 L 3.40625 -0.34375 C 3.519531 -0.34375 3.617188 -0.367188 3.703125 -0.421875 C 3.785156 -0.472656 3.851562 -0.539062 3.90625 -0.625 C 3.96875 -0.707031 4.015625 -0.796875 4.046875 -0.890625 C 4.078125 -0.984375 4.09375 -1.070312 4.09375 -1.15625 L 4.1875 -1.15625 L 4.1875 0 L 0.40625 0 Z M 0.40625 -0.09375 "/></g></g></g><g fill="#ffffff" fill-opacity="1"><g transform="translate(48.04911, 12.701611)"><g><path d="M 0.40625 -0.09375 L 0.453125 -0.09375 C 0.503906 -0.09375 0.546875 -0.109375 0.578125 -0.140625 C 0.617188 -0.171875 0.648438 -0.210938 0.671875 -0.265625 C 0.703125 -0.316406 0.722656 -0.367188 0.734375 -0.421875 C 0.753906 -0.472656 0.765625 -0.523438 0.765625 -0.578125 L 0.765625 -5.5 C 0.765625 -5.539062 0.753906 -5.585938 0.734375 -5.640625 C 0.722656 -5.691406 0.703125 -5.742188 0.671875 -5.796875 C 0.648438 -5.847656 0.617188 -5.890625 0.578125 -5.921875 C 0.546875 -5.953125 0.503906 -5.96875 0.453125 -5.96875 L 0.40625 -5.96875 L 0.40625 -6.0625 L 3.953125 -6.0625 L 3.953125 -5.203125 L 3.859375 -5.203125 C 3.847656 -5.347656 3.789062 -5.472656 3.6875 -5.578125 C 3.59375 -5.679688 3.441406 -5.734375 3.234375 -5.734375 L 1.390625 -5.734375 L 1.390625 -3.421875 L 2.90625 -3.421875 C 3.050781 -3.421875 3.171875 -3.460938 3.265625 -3.546875 C 3.359375 -3.628906 3.40625 -3.726562 3.40625 -3.84375 L 3.5 -3.84375 L 3.5 -2.703125 L 3.40625 -2.703125 C 3.40625 -2.804688 3.359375 -2.898438 3.265625 -2.984375 C 3.179688 -3.066406 3.0625 -3.109375 2.90625 -3.109375 L 1.390625 -3.109375 L 1.390625 -0.328125 L 3.40625 -0.328125 C 3.519531 -0.328125 3.617188 -0.351562 3.703125 -0.40625 C 3.785156 -0.457031 3.851562 -0.519531 3.90625 -0.59375 C 3.96875 -0.675781 4.015625 -0.757812 4.046875 -0.84375 C 4.078125 -0.9375 4.09375 -1.015625 4.09375 -1.078125 L 4.1875 -1.078125 L 4.1875 0 L 0.40625 0 Z M 0.40625 -0.09375 "/></g></g></g><g fill="#ffffff" fill-opacity="1"><g transform="translate(53.316102, 12.701611)"><g><path d="M 1.65625 -0.09375 L 1.703125 -0.09375 L 1.703125 0 L 0.40625 0 L 0.40625 -0.09375 L 0.453125 -0.09375 C 0.503906 -0.09375 0.546875 -0.109375 0.578125 -0.140625 C 0.617188 -0.179688 0.648438 -0.222656 0.671875 -0.265625 C 0.703125 -0.316406 0.722656 -0.375 0.734375 -0.4375 C 0.742188 -0.5 0.75 -0.550781 0.75 -0.59375 L 0.75 -5.5 C 0.75 -5.539062 0.742188 -5.585938 0.734375 -5.640625 C 0.722656 -5.691406 0.703125 -5.742188 0.671875 -5.796875 C 0.648438 -5.847656 0.617188 -5.890625 0.578125 -5.921875 C 0.546875 -5.953125 0.503906 -5.96875 0.453125 -5.96875 L 0.40625 -5.96875 L 0.40625 -6.0625 L 2.015625 -6.0625 C 2.628906 -6.0625 3.101562 -5.941406 3.4375 -5.703125 C 3.769531 -5.460938 3.9375 -5.113281 3.9375 -4.65625 C 3.9375 -4.414062 3.894531 -4.207031 3.8125 -4.03125 C 3.738281 -3.863281 3.632812 -3.71875 3.5 -3.59375 C 3.375 -3.46875 3.222656 -3.363281 3.046875 -3.28125 C 2.878906 -3.207031 2.695312 -3.148438 2.5 -3.109375 L 3.15625 -2.109375 C 3.320312 -1.859375 3.484375 -1.613281 3.640625 -1.375 C 3.804688 -1.144531 3.972656 -0.90625 4.140625 -0.65625 C 4.179688 -0.59375 4.226562 -0.523438 4.28125 -0.453125 C 4.332031 -0.390625 4.382812 -0.328125 4.4375 -0.265625 C 4.5 -0.210938 4.5625 -0.171875 4.625 -0.140625 C 4.6875 -0.109375 4.753906 -0.09375 4.828125 -0.09375 L 4.828125 0 L 4.421875 0 C 4.179688 0 3.984375 -0.0546875 3.828125 -0.171875 C 3.671875 -0.296875 3.539062 -0.4375 3.4375 -0.59375 C 3.15625 -1 2.878906 -1.410156 2.609375 -1.828125 C 2.335938 -2.242188 2.066406 -2.65625 1.796875 -3.0625 C 1.734375 -3.0625 1.660156 -3.066406 1.578125 -3.078125 C 1.503906 -3.085938 1.4375 -3.097656 1.375 -3.109375 L 1.375 -0.59375 C 1.375 -0.550781 1.378906 -0.5 1.390625 -0.4375 C 1.398438 -0.375 1.414062 -0.316406 1.4375 -0.265625 C 1.46875 -0.222656 1.5 -0.179688 1.53125 -0.140625 C 1.570312 -0.109375 1.613281 -0.09375 1.65625 -0.09375 Z M 1.375 -5.75 L 1.375 -3.421875 L 1.421875 -3.421875 C 1.460938 -3.410156 1.535156 -3.40625 1.640625 -3.40625 C 1.753906 -3.40625 1.890625 -3.40625 2.046875 -3.40625 C 2.171875 -3.40625 2.304688 -3.421875 2.453125 -3.453125 C 2.597656 -3.492188 2.734375 -3.5625 2.859375 -3.65625 C 2.984375 -3.75 3.085938 -3.875 3.171875 -4.03125 C 3.253906 -4.1875 3.296875 -4.378906 3.296875 -4.609375 C 3.296875 -4.847656 3.25 -5.039062 3.15625 -5.1875 C 3.070312 -5.332031 2.953125 -5.445312 2.796875 -5.53125 C 2.640625 -5.613281 2.453125 -5.671875 2.234375 -5.703125 C 2.015625 -5.734375 1.769531 -5.75 1.5 -5.75 Z M 1.375 -5.75 "/></g></g></g><g fill="#ffffff" fill-opacity="1"><g transform="translate(21.521966, 24.994962)"><g><path d="M 0.65625 -0.03125 L 0.671875 -0.03125 L 0.671875 0 L 0.15625 0 L 0.15625 -0.03125 L 0.1875 -0.03125 C 0.195312 -0.03125 0.207031 -0.0351562 0.21875 -0.046875 C 0.238281 -0.0664062 0.253906 -0.0859375 0.265625 -0.109375 C 0.273438 -0.128906 0.28125 -0.148438 0.28125 -0.171875 C 0.289062 -0.191406 0.296875 -0.210938 0.296875 -0.234375 L 0.296875 -2.171875 C 0.296875 -2.179688 0.289062 -2.195312 0.28125 -2.21875 C 0.28125 -2.25 0.273438 -2.269531 0.265625 -2.28125 C 0.253906 -2.300781 0.238281 -2.316406 0.21875 -2.328125 C 0.207031 -2.347656 0.195312 -2.359375 0.1875 -2.359375 L 0.15625 -2.359375 L 0.15625 -2.390625 L 0.796875 -2.390625 C 1.035156 -2.390625 1.21875 -2.34375 1.34375 -2.25 C 1.476562 -2.15625 1.546875 -2.015625 1.546875 -1.828125 C 1.546875 -1.742188 1.53125 -1.664062 1.5 -1.59375 C 1.46875 -1.519531 1.425781 -1.457031 1.375 -1.40625 C 1.332031 -1.363281 1.273438 -1.328125 1.203125 -1.296875 C 1.140625 -1.265625 1.066406 -1.242188 0.984375 -1.234375 L 1.25 -0.828125 C 1.3125 -0.734375 1.375 -0.640625 1.4375 -0.546875 C 1.5 -0.453125 1.5625 -0.351562 1.625 -0.25 C 1.644531 -0.226562 1.664062 -0.203125 1.6875 -0.171875 C 1.707031 -0.148438 1.726562 -0.128906 1.75 -0.109375 C 1.769531 -0.0859375 1.789062 -0.0664062 1.8125 -0.046875 C 1.84375 -0.0351562 1.875 -0.03125 1.90625 -0.03125 L 1.90625 0 L 1.75 0 C 1.65625 0 1.578125 -0.0195312 1.515625 -0.0625 C 1.453125 -0.113281 1.398438 -0.171875 1.359375 -0.234375 C 1.242188 -0.390625 1.132812 -0.550781 1.03125 -0.71875 C 0.925781 -0.882812 0.816406 -1.046875 0.703125 -1.203125 C 0.679688 -1.203125 0.65625 -1.203125 0.625 -1.203125 C 0.59375 -1.210938 0.566406 -1.222656 0.546875 -1.234375 L 0.546875 -0.234375 C 0.546875 -0.210938 0.546875 -0.191406 0.546875 -0.171875 C 0.546875 -0.148438 0.550781 -0.128906 0.5625 -0.109375 C 0.582031 -0.0859375 0.597656 -0.0664062 0.609375 -0.046875 C 0.617188 -0.0351562 0.632812 -0.03125 0.65625 -0.03125 Z M 0.546875 -2.265625 L 0.546875 -1.34375 L 0.5625 -1.34375 C 0.582031 -1.34375 0.613281 -1.34375 0.65625 -1.34375 C 0.695312 -1.34375 0.75 -1.34375 0.8125 -1.34375 C 0.863281 -1.34375 0.914062 -1.347656 0.96875 -1.359375 C 1.03125 -1.378906 1.082031 -1.40625 1.125 -1.4375 C 1.175781 -1.476562 1.21875 -1.53125 1.25 -1.59375 C 1.28125 -1.65625 1.296875 -1.726562 1.296875 -1.8125 C 1.296875 -1.90625 1.28125 -1.976562 1.25 -2.03125 C 1.21875 -2.09375 1.171875 -2.140625 1.109375 -2.171875 C 1.046875 -2.210938 0.96875 -2.238281 0.875 -2.25 C 0.789062 -2.257812 0.695312 -2.265625 0.59375 -2.265625 Z M 0.546875 -2.265625 "/></g></g></g><g fill="#ffffff" fill-opacity="1"><g transform="translate(24.752468, 24.994962)"><g><path d="M 0.15625 -0.03125 L 0.1875 -0.03125 C 0.195312 -0.03125 0.207031 -0.0351562 0.21875 -0.046875 C 0.238281 -0.0664062 0.253906 -0.0859375 0.265625 -0.109375 C 0.273438 -0.128906 0.28125 -0.148438 0.28125 -0.171875 C 0.289062 -0.191406 0.296875 -0.210938 0.296875 -0.234375 L 0.296875 -2.171875 C 0.296875 -2.179688 0.289062 -2.195312 0.28125 -2.21875 C 0.28125 -2.25 0.273438 -2.269531 0.265625 -2.28125 C 0.253906 -2.300781 0.238281 -2.316406 0.21875 -2.328125 C 0.207031 -2.347656 0.195312 -2.359375 0.1875 -2.359375 L 0.15625 -2.359375 L 0.15625 -2.390625 L 1.5625 -2.390625 L 1.5625 -2.0625 L 1.515625 -2.0625 C 1.515625 -2.113281 1.492188 -2.160156 1.453125 -2.203125 C 1.421875 -2.242188 1.363281 -2.265625 1.28125 -2.265625 L 0.546875 -2.265625 L 0.546875 -1.34375 L 1.15625 -1.34375 C 1.207031 -1.34375 1.25 -1.359375 1.28125 -1.390625 C 1.320312 -1.429688 1.34375 -1.472656 1.34375 -1.515625 L 1.375 -1.515625 L 1.375 -1.0625 L 1.34375 -1.0625 C 1.34375 -1.101562 1.320312 -1.140625 1.28125 -1.171875 C 1.25 -1.203125 1.207031 -1.21875 1.15625 -1.21875 L 0.546875 -1.21875 L 0.546875 -0.125 L 1.34375 -0.125 C 1.382812 -0.125 1.421875 -0.132812 1.453125 -0.15625 C 1.492188 -0.175781 1.523438 -0.203125 1.546875 -0.234375 C 1.566406 -0.265625 1.582031 -0.296875 1.59375 -0.328125 C 1.601562 -0.367188 1.609375 -0.398438 1.609375 -0.421875 L 1.65625 -0.421875 L 1.65625 0 L 0.15625 0 Z M 0.15625 -0.03125 "/></g></g></g><g fill="#ffffff" fill-opacity="1"><g transform="translate(27.783375, 24.994962)"><g><path d="M 2.109375 -0.03125 L 2.125 -0.03125 C 2.144531 -0.03125 2.160156 -0.0351562 2.171875 -0.046875 C 2.191406 -0.0664062 2.207031 -0.0859375 2.21875 -0.109375 C 2.226562 -0.128906 2.234375 -0.148438 2.234375 -0.171875 C 2.242188 -0.191406 2.25 -0.210938 2.25 -0.234375 L 2.25 -2.140625 L 1.3125 0.046875 L 0.421875 -2.03125 L 0.421875 -0.234375 C 0.421875 -0.210938 0.421875 -0.191406 0.421875 -0.171875 C 0.429688 -0.148438 0.441406 -0.128906 0.453125 -0.109375 C 0.460938 -0.0859375 0.472656 -0.0664062 0.484375 -0.046875 C 0.503906 -0.0351562 0.523438 -0.03125 0.546875 -0.03125 L 0.5625 -0.03125 L 0.5625 0 L 0.171875 0 L 0.171875 -0.03125 L 0.1875 -0.03125 C 0.195312 -0.03125 0.207031 -0.0351562 0.21875 -0.046875 C 0.238281 -0.0664062 0.253906 -0.0859375 0.265625 -0.109375 C 0.273438 -0.128906 0.28125 -0.148438 0.28125 -0.171875 C 0.289062 -0.191406 0.296875 -0.210938 0.296875 -0.234375 L 0.296875 -2.171875 C 0.296875 -2.179688 0.289062 -2.195312 0.28125 -2.21875 C 0.28125 -2.25 0.273438 -2.269531 0.265625 -2.28125 C 0.253906 -2.300781 0.238281 -2.316406 0.21875 -2.328125 C 0.207031 -2.347656 0.195312 -2.359375 0.1875 -2.359375 L 0.171875 -2.359375 L 0.171875 -2.390625 L 0.53125 -2.390625 L 1.375 -0.40625 L 2.21875 -2.390625 L 2.625 -2.390625 L 2.625 -2.359375 L 2.609375 -2.359375 C 2.585938 -2.359375 2.566406 -2.347656 2.546875 -2.328125 C 2.535156 -2.316406 2.523438 -2.300781 2.515625 -2.28125 C 2.503906 -2.269531 2.492188 -2.25 2.484375 -2.21875 C 2.484375 -2.195312 2.484375 -2.179688 2.484375 -2.171875 L 2.484375 -0.234375 C 2.484375 -0.210938 2.484375 -0.191406 2.484375 -0.171875 C 2.492188 -0.148438 2.503906 -0.128906 2.515625 -0.109375 C 2.523438 -0.0859375 2.535156 -0.0664062 2.546875 -0.046875 C 2.566406 -0.0351562 2.585938 -0.03125 2.609375 -0.03125 L 2.625 -0.03125 L 2.625 0 L 2.109375 0 Z M 2.109375 -0.03125 "/></g></g></g><g fill="#ffffff" fill-opacity="1"><g transform="translate(31.873955, 24.994962)"><g><path d="M 1.390625 -2.421875 C 1.578125 -2.421875 1.742188 -2.390625 1.890625 -2.328125 C 2.035156 -2.265625 2.160156 -2.175781 2.265625 -2.0625 C 2.378906 -1.945312 2.460938 -1.816406 2.515625 -1.671875 C 2.578125 -1.523438 2.609375 -1.367188 2.609375 -1.203125 C 2.609375 -1.023438 2.570312 -0.859375 2.5 -0.703125 C 2.4375 -0.546875 2.347656 -0.414062 2.234375 -0.3125 C 2.117188 -0.207031 1.984375 -0.125 1.828125 -0.0625 C 1.671875 0 1.503906 0.03125 1.328125 0.03125 C 1.148438 0.03125 0.984375 0 0.828125 -0.0625 C 0.679688 -0.132812 0.554688 -0.222656 0.453125 -0.328125 C 0.347656 -0.441406 0.269531 -0.570312 0.21875 -0.71875 C 0.164062 -0.863281 0.140625 -1.015625 0.140625 -1.171875 C 0.140625 -1.328125 0.164062 -1.476562 0.21875 -1.625 C 0.269531 -1.78125 0.347656 -1.914062 0.453125 -2.03125 C 0.566406 -2.15625 0.703125 -2.25 0.859375 -2.3125 C 1.015625 -2.382812 1.191406 -2.421875 1.390625 -2.421875 Z M 1.375 -0.09375 C 1.539062 -0.09375 1.679688 -0.125 1.796875 -0.1875 C 1.921875 -0.257812 2.023438 -0.347656 2.109375 -0.453125 C 2.191406 -0.554688 2.253906 -0.671875 2.296875 -0.796875 C 2.335938 -0.921875 2.359375 -1.039062 2.359375 -1.15625 C 2.359375 -1.289062 2.332031 -1.425781 2.28125 -1.5625 C 2.238281 -1.695312 2.171875 -1.816406 2.078125 -1.921875 C 1.984375 -2.035156 1.875 -2.125 1.75 -2.1875 C 1.625 -2.257812 1.488281 -2.296875 1.34375 -2.296875 C 1.1875 -2.296875 1.046875 -2.265625 0.921875 -2.203125 C 0.804688 -2.140625 0.707031 -2.054688 0.625 -1.953125 C 0.539062 -1.847656 0.476562 -1.726562 0.4375 -1.59375 C 0.394531 -1.46875 0.375 -1.34375 0.375 -1.21875 C 0.375 -1.082031 0.398438 -0.945312 0.453125 -0.8125 C 0.503906 -0.6875 0.570312 -0.566406 0.65625 -0.453125 C 0.75 -0.347656 0.851562 -0.257812 0.96875 -0.1875 C 1.09375 -0.125 1.226562 -0.09375 1.375 -0.09375 Z M 1.375 -0.09375 "/></g></g></g><g fill="#ffffff" fill-opacity="1"><g transform="translate(35.906473, 24.994962)"><g><path d="M 0.15625 -0.03125 L 0.171875 -0.03125 C 0.191406 -0.03125 0.207031 -0.0351562 0.21875 -0.046875 C 0.238281 -0.0664062 0.253906 -0.0859375 0.265625 -0.109375 C 0.273438 -0.128906 0.28125 -0.148438 0.28125 -0.171875 C 0.289062 -0.191406 0.296875 -0.210938 0.296875 -0.234375 L 0.296875 -2.171875 C 0.296875 -2.179688 0.289062 -2.195312 0.28125 -2.21875 C 0.28125 -2.25 0.273438 -2.269531 0.265625 -2.28125 C 0.253906 -2.300781 0.238281 -2.316406 0.21875 -2.328125 C 0.207031 -2.347656 0.191406 -2.359375 0.171875 -2.359375 L 0.15625 -2.359375 L 0.15625 -2.390625 L 0.859375 -2.390625 C 1.046875 -2.390625 1.21875 -2.351562 1.375 -2.28125 C 1.53125 -2.21875 1.660156 -2.128906 1.765625 -2.015625 C 1.867188 -1.910156 1.945312 -1.785156 2 -1.640625 C 2.050781 -1.492188 2.078125 -1.34375 2.078125 -1.1875 C 2.078125 -1.039062 2.050781 -0.894531 2 -0.75 C 1.945312 -0.613281 1.867188 -0.488281 1.765625 -0.375 C 1.660156 -0.257812 1.523438 -0.164062 1.359375 -0.09375 C 1.203125 -0.03125 1.019531 0 0.8125 0 L 0.15625 0 Z M 1.84375 -1.125 C 1.84375 -1.28125 1.8125 -1.425781 1.75 -1.5625 C 1.695312 -1.707031 1.617188 -1.828125 1.515625 -1.921875 C 1.421875 -2.023438 1.300781 -2.109375 1.15625 -2.171875 C 1.019531 -2.234375 0.875 -2.265625 0.71875 -2.265625 L 0.53125 -2.265625 L 0.53125 -0.125 L 0.734375 -0.125 C 0.859375 -0.125 0.984375 -0.144531 1.109375 -0.1875 C 1.242188 -0.226562 1.363281 -0.289062 1.46875 -0.375 C 1.582031 -0.457031 1.671875 -0.5625 1.734375 -0.6875 C 1.804688 -0.8125 1.84375 -0.957031 1.84375 -1.125 Z M 1.84375 -1.125 "/></g></g></g><g fill="#ffffff" fill-opacity="1"><g transform="translate(39.412781, 24.994962)"><g><path d="M 0.15625 -0.03125 L 0.1875 -0.03125 C 0.195312 -0.03125 0.207031 -0.0351562 0.21875 -0.046875 C 0.238281 -0.0664062 0.253906 -0.0859375 0.265625 -0.109375 C 0.273438 -0.128906 0.28125 -0.148438 0.28125 -0.171875 C 0.289062 -0.191406 0.296875 -0.210938 0.296875 -0.234375 L 0.296875 -2.171875 C 0.296875 -2.179688 0.289062 -2.195312 0.28125 -2.21875 C 0.28125 -2.25 0.273438 -2.269531 0.265625 -2.28125 C 0.253906 -2.300781 0.238281 -2.316406 0.21875 -2.328125 C 0.207031 -2.347656 0.195312 -2.359375 0.1875 -2.359375 L 0.15625 -2.359375 L 0.15625 -2.390625 L 1.5625 -2.390625 L 1.5625 -2.0625 L 1.515625 -2.0625 C 1.515625 -2.113281 1.492188 -2.160156 1.453125 -2.203125 C 1.421875 -2.242188 1.363281 -2.265625 1.28125 -2.265625 L 0.546875 -2.265625 L 0.546875 -1.34375 L 1.15625 -1.34375 C 1.207031 -1.34375 1.25 -1.359375 1.28125 -1.390625 C 1.320312 -1.429688 1.34375 -1.472656 1.34375 -1.515625 L 1.375 -1.515625 L 1.375 -1.0625 L 1.34375 -1.0625 C 1.34375 -1.101562 1.320312 -1.140625 1.28125 -1.171875 C 1.25 -1.203125 1.207031 -1.21875 1.15625 -1.21875 L 0.546875 -1.21875 L 0.546875 -0.125 L 1.34375 -0.125 C 1.382812 -0.125 1.421875 -0.132812 1.453125 -0.15625 C 1.492188 -0.175781 1.523438 -0.203125 1.546875 -0.234375 C 1.566406 -0.265625 1.582031 -0.296875 1.59375 -0.328125 C 1.601562 -0.367188 1.609375 -0.398438 1.609375 -0.421875 L 1.65625 -0.421875 L 1.65625 0 L 0.15625 0 Z M 0.15625 -0.03125 "/></g></g></g><g fill="#ffffff" fill-opacity="1"><g transform="translate(42.443687, 24.994962)"><g><path d="M 0.15625 -0.03125 L 0.1875 -0.03125 C 0.195312 -0.03125 0.207031 -0.0351562 0.21875 -0.046875 C 0.238281 -0.0664062 0.253906 -0.0859375 0.265625 -0.109375 C 0.273438 -0.128906 0.28125 -0.148438 0.28125 -0.171875 C 0.289062 -0.191406 0.296875 -0.210938 0.296875 -0.234375 L 0.296875 -2.171875 C 0.296875 -2.179688 0.289062 -2.195312 0.28125 -2.21875 C 0.28125 -2.25 0.273438 -2.269531 0.265625 -2.28125 C 0.253906 -2.300781 0.238281 -2.316406 0.21875 -2.328125 C 0.207031 -2.347656 0.195312 -2.359375 0.1875 -2.359375 L 0.15625 -2.359375 L 0.15625 -2.390625 L 0.6875 -2.390625 L 0.6875 -2.359375 L 0.671875 -2.359375 C 0.648438 -2.359375 0.628906 -2.347656 0.609375 -2.328125 C 0.597656 -2.316406 0.585938 -2.300781 0.578125 -2.28125 C 0.566406 -2.269531 0.554688 -2.25 0.546875 -2.21875 C 0.546875 -2.195312 0.546875 -2.179688 0.546875 -2.171875 L 0.546875 -0.140625 L 1.34375 -0.140625 C 1.382812 -0.140625 1.421875 -0.148438 1.453125 -0.171875 C 1.492188 -0.191406 1.523438 -0.21875 1.546875 -0.25 C 1.566406 -0.28125 1.582031 -0.3125 1.59375 -0.34375 C 1.601562 -0.382812 1.609375 -0.421875 1.609375 -0.453125 L 1.65625 -0.453125 L 1.65625 0 L 0.15625 0 Z M 0.15625 -0.03125 "/></g></g></g><g fill="#ffffff" fill-opacity="1"><g transform="translate(45.40201, 24.994962)"><g><path d="M 0.171875 -2.390625 L 0.703125 -2.390625 L 0.703125 -2.359375 L 0.671875 -2.359375 C 0.660156 -2.359375 0.644531 -2.347656 0.625 -2.328125 C 0.613281 -2.316406 0.601562 -2.300781 0.59375 -2.28125 C 0.582031 -2.269531 0.570312 -2.25 0.5625 -2.21875 C 0.5625 -2.195312 0.5625 -2.179688 0.5625 -2.171875 L 0.5625 -0.234375 C 0.5625 -0.210938 0.5625 -0.191406 0.5625 -0.171875 C 0.570312 -0.148438 0.582031 -0.128906 0.59375 -0.109375 C 0.601562 -0.0859375 0.613281 -0.0664062 0.625 -0.046875 C 0.644531 -0.0351562 0.660156 -0.03125 0.671875 -0.03125 L 0.703125 -0.03125 L 0.703125 0 L 0.171875 0 L 0.171875 -0.03125 L 0.203125 -0.03125 C 0.210938 -0.03125 0.222656 -0.0351562 0.234375 -0.046875 C 0.253906 -0.0664062 0.269531 -0.0859375 0.28125 -0.109375 C 0.289062 -0.128906 0.296875 -0.148438 0.296875 -0.171875 C 0.304688 -0.191406 0.3125 -0.210938 0.3125 -0.234375 L 0.3125 -2.171875 C 0.3125 -2.179688 0.304688 -2.195312 0.296875 -2.21875 C 0.296875 -2.25 0.289062 -2.269531 0.28125 -2.28125 C 0.269531 -2.300781 0.253906 -2.316406 0.234375 -2.328125 C 0.222656 -2.347656 0.210938 -2.359375 0.203125 -2.359375 L 0.171875 -2.359375 Z M 0.171875 -2.390625 "/></g></g></g><g fill="#ffffff" fill-opacity="1"><g transform="translate(47.554691, 24.994962)"><g><path d="M 0.546875 -0.03125 L 0.5625 -0.03125 L 0.5625 0 L 0.15625 0 L 0.15625 -0.03125 L 0.171875 -0.03125 C 0.191406 -0.03125 0.207031 -0.0351562 0.21875 -0.046875 C 0.238281 -0.0664062 0.253906 -0.0859375 0.265625 -0.109375 C 0.273438 -0.128906 0.28125 -0.148438 0.28125 -0.171875 C 0.289062 -0.191406 0.296875 -0.210938 0.296875 -0.234375 L 0.296875 -2.171875 C 0.296875 -2.179688 0.289062 -2.195312 0.28125 -2.21875 C 0.28125 -2.25 0.273438 -2.269531 0.265625 -2.28125 C 0.253906 -2.300781 0.238281 -2.316406 0.21875 -2.328125 C 0.207031 -2.347656 0.191406 -2.359375 0.171875 -2.359375 L 0.15625 -2.359375 L 0.15625 -2.390625 L 0.515625 -2.390625 L 1.828125 -0.3125 L 1.828125 -2.171875 C 1.828125 -2.179688 1.820312 -2.195312 1.8125 -2.21875 C 1.8125 -2.25 1.804688 -2.269531 1.796875 -2.28125 C 1.785156 -2.300781 1.769531 -2.316406 1.75 -2.328125 C 1.738281 -2.347656 1.726562 -2.359375 1.71875 -2.359375 L 1.6875 -2.359375 L 1.6875 -2.390625 L 2.09375 -2.390625 L 2.09375 -2.359375 L 2.078125 -2.359375 C 2.054688 -2.359375 2.039062 -2.347656 2.03125 -2.328125 C 2.019531 -2.316406 2.003906 -2.300781 1.984375 -2.28125 C 1.972656 -2.269531 1.96875 -2.25 1.96875 -2.21875 C 1.96875 -2.195312 1.96875 -2.179688 1.96875 -2.171875 L 1.96875 0 L 1.734375 0 L 0.421875 -2.078125 L 0.421875 -0.234375 C 0.421875 -0.210938 0.421875 -0.191406 0.421875 -0.171875 C 0.429688 -0.148438 0.441406 -0.128906 0.453125 -0.109375 C 0.460938 -0.0859375 0.472656 -0.0664062 0.484375 -0.046875 C 0.503906 -0.0351562 0.523438 -0.03125 0.546875 -0.03125 Z M 0.546875 -0.03125 "/></g></g></g><g fill="#ffffff" fill-opacity="1"><g transform="translate(51.104546, 24.994962)"><g><path d="M 1.71875 -1.265625 L 2.234375 -1.265625 L 2.234375 -1.21875 L 2.21875 -1.21875 C 2.195312 -1.21875 2.179688 -1.210938 2.171875 -1.203125 C 2.160156 -1.191406 2.148438 -1.175781 2.140625 -1.15625 C 2.128906 -1.132812 2.117188 -1.113281 2.109375 -1.09375 C 2.109375 -1.070312 2.109375 -1.050781 2.109375 -1.03125 L 2.109375 -0.0625 C 2.054688 -0.0507812 2.003906 -0.0351562 1.953125 -0.015625 C 1.898438 -0.00390625 1.84375 0 1.78125 0 C 1.71875 0.0078125 1.65625 0.015625 1.59375 0.015625 C 1.53125 0.0234375 1.472656 0.03125 1.421875 0.03125 C 1.203125 0.03125 1.007812 -0.00390625 0.84375 -0.078125 C 0.6875 -0.148438 0.554688 -0.242188 0.453125 -0.359375 C 0.347656 -0.472656 0.269531 -0.601562 0.21875 -0.75 C 0.164062 -0.894531 0.140625 -1.046875 0.140625 -1.203125 C 0.140625 -1.347656 0.164062 -1.492188 0.21875 -1.640625 C 0.269531 -1.785156 0.347656 -1.914062 0.453125 -2.03125 C 0.554688 -2.15625 0.691406 -2.25 0.859375 -2.3125 C 1.023438 -2.382812 1.21875 -2.421875 1.4375 -2.421875 C 1.519531 -2.421875 1.597656 -2.414062 1.671875 -2.40625 C 1.742188 -2.394531 1.804688 -2.378906 1.859375 -2.359375 C 1.890625 -2.359375 1.914062 -2.351562 1.9375 -2.34375 C 1.96875 -2.34375 1.992188 -2.34375 2.015625 -2.34375 L 2.046875 -2.34375 L 2.046875 -1.953125 L 2 -1.953125 C 1.988281 -2.023438 1.960938 -2.082031 1.921875 -2.125 C 1.878906 -2.175781 1.828125 -2.210938 1.765625 -2.234375 C 1.710938 -2.265625 1.65625 -2.28125 1.59375 -2.28125 C 1.53125 -2.289062 1.472656 -2.296875 1.421875 -2.296875 C 1.242188 -2.296875 1.085938 -2.265625 0.953125 -2.203125 C 0.816406 -2.140625 0.707031 -2.054688 0.625 -1.953125 C 0.539062 -1.859375 0.476562 -1.742188 0.4375 -1.609375 C 0.394531 -1.484375 0.375 -1.359375 0.375 -1.234375 C 0.375 -1.097656 0.398438 -0.957031 0.453125 -0.8125 C 0.503906 -0.675781 0.578125 -0.554688 0.671875 -0.453125 C 0.773438 -0.347656 0.894531 -0.257812 1.03125 -0.1875 C 1.164062 -0.125 1.316406 -0.09375 1.484375 -0.09375 C 1.535156 -0.09375 1.59375 -0.0976562 1.65625 -0.109375 C 1.726562 -0.117188 1.796875 -0.144531 1.859375 -0.1875 L 1.859375 -1.03125 C 1.859375 -1.050781 1.851562 -1.070312 1.84375 -1.09375 C 1.84375 -1.113281 1.835938 -1.132812 1.828125 -1.15625 C 1.816406 -1.175781 1.800781 -1.191406 1.78125 -1.203125 C 1.769531 -1.210938 1.753906 -1.21875 1.734375 -1.21875 L 1.71875 -1.21875 Z M 1.71875 -1.265625 "/></g></g></g><g clip-path="url(#2f1c8ab102)"><path fill="#ffbd4a" d="M 1.210938 2.484375 L 73.789062 2.484375 L 73.789062 3.210938 L 1.210938 3.210938 Z M 1.210938 2.484375 " fill-opacity="1" fill-rule="nonzero"/></g><g clip-path="url(#8b9422ef38)"><path fill="#ffbd4a" d="M 1.210938 17.546875 L 73.789062 17.546875 L 73.789062 18.273438 L 1.210938 18.273438 Z M 1.210938 17.546875 " fill-opacity="1" fill-rule="nonzero"/></g></svg>